name rise35.5848peak51.9257fall54.8793.mot
datacolumns 19
datarows 15
range 0.93999500000000 0.96332200000000
endheader
time	ground_force1_vx	ground_force1_vy	ground_force1_vz	ground_force1_px	ground_force1_py	ground_force1_pz	ground_force2_vx	ground_force2_vy	ground_force2_vz	ground_force2_px	ground_force2_py	ground_force2_pz	ground_torque1_x	ground_torque1_y	ground_torque1_z	ground_torque2_x	ground_torque2_y	ground_torque2_z	
0.93999500000000	9.55424000000000	713.99666500000001	38.30699500000000	0.21224500000000	0.00000000000000	0.11737100000000	0.00000000000000	0.00000000000000	0.00000000000000	0.00000000000000	0.00000000000000	0.00000000000000	0.00000000000000	15.23573000000000	0.00000000000000	0.00000000000000	0.00000000000000	0.00000000000000	
0.94166000000000	9.13708900000000	714.63495300000000	38.32361900000000	0.21138400000000	0.00000000000000	0.11730500000000	0.00000000000000	0.00000000000000	0.00000000000000	0.00000000000000	0.00000000000000	0.00000000000000	0.00000000000000	15.31160100000000	0.00000000000000	0.00000000000000	0.00000000000000	0.00000000000000	
0.94332600000000	8.71104900000000	715.29908499999999	38.34397100000000	0.21050400000000	0.00000000000000	0.11724000000000	0.00000000000000	0.00000000000000	0.00000000000000	0.00000000000000	0.00000000000000	0.00000000000000	0.00000000000000	15.39078300000000	0.00000000000000	0.00000000000000	0.00000000000000	0.00000000000000	
0.94499600000000	8.27604700000000	715.98953900000004	38.36802900000000	0.20960400000000	0.00000000000000	0.11717500000000	0.00000000000000	0.00000000000000	0.00000000000000	0.00000000000000	0.00000000000000	0.00000000000000	0.00000000000000	15.47325700000000	0.00000000000000	0.00000000000000	0.00000000000000	0.00000000000000	
0.94666500000000	7.83205100000000	716.70684700000004	38.39576800000000	0.20868500000000	0.00000000000000	0.11711100000000	0.00000000000000	0.00000000000000	0.00000000000000	0.00000000000000	0.00000000000000	0.00000000000000	0.00000000000000	15.55899700000000	0.00000000000000	0.00000000000000	0.00000000000000	0.00000000000000	
0.94832900000000	7.37906500000000	717.45159400000000	38.42716000000000	0.20774700000000	0.00000000000000	0.11704800000000	0.00000000000000	0.00000000000000	0.00000000000000	0.00000000000000	0.00000000000000	0.00000000000000	0.00000000000000	15.64797200000000	0.00000000000000	0.00000000000000	0.00000000000000	0.00000000000000	
0.94999400000000	6.91713100000000	718.22440800000004	38.46217600000000	0.20679100000000	0.00000000000000	0.11698500000000	0.00000000000000	0.00000000000000	0.00000000000000	0.00000000000000	0.00000000000000	0.00000000000000	0.00000000000000	15.74014300000000	0.00000000000000	0.00000000000000	0.00000000000000	0.00000000000000	
0.95166200000000	6.44633100000000	719.02596200000005	38.50078400000000	0.20581700000000	0.00000000000000	0.11692300000000	0.00000000000000	0.00000000000000	0.00000000000000	0.00000000000000	0.00000000000000	0.00000000000000	0.00000000000000	15.83546700000000	0.00000000000000	0.00000000000000	0.00000000000000	0.00000000000000	
0.95332500000000	5.96678100000000	719.85695999999996	38.54294900000000	0.20482500000000	0.00000000000000	0.11686200000000	0.00000000000000	0.00000000000000	0.00000000000000	0.00000000000000	0.00000000000000	0.00000000000000	0.00000000000000	15.93389200000000	0.00000000000000	0.00000000000000	0.00000000000000	0.00000000000000	
0.95499600000000	5.47863500000000	720.71813599999996	38.58863500000000	0.20381700000000	0.00000000000000	0.11680100000000	0.00000000000000	0.00000000000000	0.00000000000000	0.00000000000000	0.00000000000000	0.00000000000000	0.00000000000000	16.03536000000000	0.00000000000000	0.00000000000000	0.00000000000000	0.00000000000000	
0.95666200000000	4.98208100000000	721.61024799999996	38.63780300000000	0.20279300000000	0.00000000000000	0.11674100000000	0.00000000000000	0.00000000000000	0.00000000000000	0.00000000000000	0.00000000000000	0.00000000000000	0.00000000000000	16.13980600000000	0.00000000000000	0.00000000000000	0.00000000000000	0.00000000000000	
0.95832900000000	4.47734300000000	722.53406800000005	38.69041200000000	0.20175400000000	0.00000000000000	0.11668200000000	0.00000000000000	0.00000000000000	0.00000000000000	0.00000000000000	0.00000000000000	0.00000000000000	0.00000000000000	16.24715900000000	0.00000000000000	0.00000000000000	0.00000000000000	0.00000000000000	
0.95999500000000	3.96467700000000	723.49037599999997	38.74642000000000	0.20070100000000	0.00000000000000	0.11662300000000	0.00000000000000	0.00000000000000	0.00000000000000	0.00000000000000	0.00000000000000	0.00000000000000	0.00000000000000	16.35734000000000	0.00000000000000	0.00000000000000	0.00000000000000	0.00000000000000	
0.96165800000000	3.44437000000000	724.47995400000002	38.80578200000000	0.19963600000000	0.00000000000000	0.11656400000000	0.00000000000000	0.00000000000000	0.00000000000000	0.00000000000000	0.00000000000000	0.00000000000000	0.00000000000000	16.47026400000000	0.00000000000000	0.00000000000000	0.00000000000000	0.00000000000000	
0.96332200000000	2.91674200000000	725.50357499999996	38.86845300000000	0.19856000000000	0.00000000000000	0.11650600000000	0.00000000000000	0.00000000000000	0.00000000000000	0.00000000000000	0.00000000000000	0.00000000000000	0.00000000000000	16.58583800000000	0.00000000000000	0.00000000000000	0.00000000000000	0.00000000000000	
